<svg width="42" height="22" viewBox="0 0 42 22" fill="none" xmlns="http://www.w3.org/2000/svg">
<path d="M4.70422 17.4836V4.02751H0V0.954498H12.9131V4.02751H8.20885V17.4836H4.70422Z" fill="#3685FB"/>
<path d="M13.8591 17.4836V5.19154H16.8933L17.0109 7.05397C17.3245 6.40212 17.7479 5.90547 18.281 5.56402C18.8142 5.20706 19.4414 5.02857 20.1627 5.02857C20.3822 5.02857 20.6018 5.05185 20.8213 5.09841C21.0408 5.12945 21.2368 5.17601 21.4093 5.2381L21.0565 8.45079C20.884 8.38871 20.7037 8.34991 20.5155 8.33439C20.343 8.30335 20.1627 8.28783 19.9745 8.28783C19.0651 8.28783 18.3673 8.5672 17.8812 9.12593C17.3951 9.66914 17.152 10.4452 17.152 11.454V17.4836H13.8591Z" fill="#3685FB"/>
<path d="M26.7359 1.86243C26.7359 2.2194 26.6497 2.53757 26.4772 2.81693C26.3204 3.0963 26.093 3.32134 25.7951 3.49206C25.5128 3.64727 25.1992 3.72487 24.8542 3.72487C24.5093 3.72487 24.1878 3.64727 23.8899 3.49206C23.6076 3.32134 23.3803 3.0963 23.2078 2.81693C23.051 2.53757 22.9726 2.2194 22.9726 1.86243C22.9726 1.50547 23.051 1.1873 23.2078 0.907937C23.3803 0.628572 23.6076 0.411288 23.8899 0.256086C24.1878 0.0853618 24.5093 0 24.8542 0C25.1992 0 25.5128 0.0853618 25.7951 0.256086C26.093 0.411288 26.3204 0.628572 26.4772 0.907937C26.6497 1.1873 26.7359 1.50547 26.7359 1.86243ZM23.2078 17.4836V5.19154H26.5007V17.4836H23.2078Z" fill="#3685FB"/>
<path d="M29.134 22V5.19154H32.1682L32.2623 6.98413C32.6857 6.31676 33.2502 5.79683 33.9558 5.42434C34.6614 5.03633 35.4376 4.84233 36.2844 4.84233C37.0998 4.84233 37.8525 5.00529 38.5424 5.33122C39.2324 5.65714 39.8361 6.11499 40.3535 6.70476C40.871 7.27901 41.2708 7.95414 41.5531 8.73016C41.851 9.50617 42 10.352 42 11.2677C42 12.1989 41.851 13.0603 41.5531 13.8519C41.2552 14.6434 40.8396 15.3418 40.3065 15.9471C39.7733 16.5369 39.1461 17.0025 38.4248 17.3439C37.7035 17.6698 36.9273 17.8328 36.0962 17.8328C35.3279 17.8328 34.6301 17.6854 34.0028 17.3905C33.3756 17.0801 32.8503 16.6533 32.4269 16.1101V22H29.134ZM35.5082 14.8995C36.104 14.8995 36.6372 14.7443 37.1076 14.4339C37.578 14.1235 37.9465 13.7044 38.2131 13.1767C38.4954 12.6335 38.6365 12.0205 38.6365 11.3376C38.6365 10.6547 38.4954 10.0494 38.2131 9.52169C37.9465 8.97848 37.578 8.55168 37.1076 8.24127C36.6372 7.93086 36.104 7.77566 35.5082 7.77566C34.9123 7.77566 34.3792 7.93086 33.9088 8.24127C33.4383 8.55168 33.062 8.97848 32.7797 9.52169C32.5132 10.0494 32.3799 10.6547 32.3799 11.3376C32.3799 12.0205 32.5132 12.6335 32.7797 13.1767C33.062 13.7044 33.4383 14.1235 33.9088 14.4339C34.3792 14.7443 34.9123 14.8995 35.5082 14.8995Z" fill="#3685FB"/>
</svg>
